# Blender 4.4.3
# www.blender.org
mtllib 六边形.mtl
o 圆环
o 圆环.001
v 0.866888 -0.497686 0.011772
v 0.866888 0.501960 -0.014812
v 0.000863 0.002137 -0.001520
vn -0.0000 -0.0266 -0.9996
vt 0.000000 0.000000
s 0
f 2/1/1 1/1/1 3/1/1
o 圆环.002
v 0.866888 0.501960 -0.014812
v 0.000863 1.001783 -0.028104
v 0.000863 0.002137 -0.001520
vn -0.0000 -0.0266 -0.9996
vt 0.000000 0.000000
s 0
f 5/2/2 4/2/2 6/2/2
o 圆环.003
v 0.000863 1.001783 -0.028104
v -0.865163 0.501960 -0.014812
v 0.000863 0.002137 -0.001520
vn -0.0000 -0.0266 -0.9996
vt 0.000000 0.000000
s 0
f 7/3/3 9/3/3 8/3/3
o 圆环.004
v -0.865163 0.501960 -0.014812
v -0.865163 -0.497687 0.011772
v 0.000863 0.002137 -0.001520
vn -0.0000 -0.0266 -0.9996
vt 0.000000 0.000000
s 0
f 10/4/4 12/4/4 11/4/4
o 圆环.005
v 0.000863 -0.997510 0.025064
v -0.865163 -0.497687 0.011772
v 0.000863 0.002137 -0.001520
vn -0.0000 -0.0266 -0.9996
vt 0.000000 0.000000
s 0
f 14/5/5 15/5/5 13/5/5
o 圆环.006
v 0.000863 -0.997510 0.025064
v 0.866888 -0.497686 0.011772
v 0.000863 0.002137 -0.001520
vn -0.0000 -0.0266 -0.9996
vt 0.000000 0.000000
s 0
f 16/6/6 18/6/6 17/6/6
o 圆环.015
v 0.000863 -0.997510 0.025064
v -0.865163 -0.497686 0.011772
v 0.000863 0.002137 -0.001520
vn -0.0000 0.0266 0.9996
vt 0.000000 0.000000
s 0
f 19/7/7 21/7/7 20/7/7
o 圆环.016
v 0.000863 -0.997510 0.025064
v 0.866888 -0.497686 0.011772
v 0.000863 0.002137 -0.001520
vn -0.0000 0.0266 0.9996
vt 0.000000 0.000000
s 0
f 23/8/8 24/8/8 22/8/8
o 圆环.017
v 0.866888 0.501960 -0.014812
v 0.866888 -0.497686 0.011772
v 0.000863 0.002137 -0.001520
vn -0.0000 0.0266 0.9996
vt 0.000000 0.000000
s 0
f 25/9/9 27/9/9 26/9/9
o 圆环.018
v 0.000863 1.001783 -0.028104
v 0.866888 0.501960 -0.014812
v 0.000863 0.002137 -0.001520
vn -0.0000 0.0266 0.9996
vt 0.000000 0.000000
s 0
f 28/10/10 30/10/10 29/10/10
o 圆环.019
v -0.865163 0.501960 -0.014812
v 0.000863 1.001783 -0.028104
v 0.000863 0.002137 -0.001520
vn -0.0000 0.0266 0.9996
vt 0.000000 0.000000
s 0
f 32/11/11 31/11/11 33/11/11
o 圆环.020
v -0.865163 -0.497686 0.011772
v -0.865163 0.501960 -0.014812
v 0.000863 0.002137 -0.001520
vn -0.0000 0.0266 0.9996
vt 0.000000 0.000000
s 0
f 35/12/12 34/12/12 36/12/12
